<?xml version="1.0" encoding="utf-8"?>
<svg xmlns="http://www.w3.org/2000/svg" viewBox="11.324 60.333 476.663 370.145" width="476.663px" height="370.145px">
  <path style="stroke: rgb(0, 0, 0); stroke-width: 1;" d="M 11.324 391.604 L 158.64 308.573 L 157.858 180.622 L 211.121 128.312 L 213.707 257.458 L 198.51 288.746 L 285.982 236.342 L 256.146 236.909 L 254.255 118.458 C 338.497 109.068 322.965 210.587 323.155 209.985 L 487.987 113.098 L 373.969 136.731 C 373.994 136.911 366.28 69.31 258.611 60.333 L 113.177 63.838 L 110.471 305.627 L 11.324 391.604 Z" transform="matrix(1, 0, 0, 1, 0, 2.842170943040401e-14)"/>
  <path style="stroke: rgb(0, 0, 0); stroke-width: 1; transform-origin: 259.259px 287.319px;" d="M 50.335 430.478 L 314.718 273.42 C 311.926 273.455 306.582 207.795 312.957 194.256 C 330.954 156.034 358.539 190.329 359.141 240.809 L 468.184 172.134 L 412.163 197.555 C 412.559 197.262 410.3 143.776 409.646 144.162 L 261.437 145.519 C 261.189 147.264 258.972 237.021 258.139 247.63 C 255.081 286.324 218.81 306.838 191.147 303.874 C 187.334 297.414 190.486 211.025 190.297 211.051 C 191.775 155.571 252.245 146.249 244.092 146.018 C 91.949 141.817 141.003 342.662 131.14 362.653 L 50.335 430.478 Z" transform="matrix(-1, 0, 0, -1, 0.00006104, -0.00006104)"/>
</svg>